<svg version="1.1" xmlns="http://www.w3.org/2000/svg" xmlns:xlink="http://www.w3.org/1999/xlink" width="416.99169921875" height="108"><defs/><g><text fill="#eeeeee" stroke="none" font-family="Arial" font-size="24px" font-style="normal" font-weight="normal" text-decoration="none" x="0" y="0">UNREGISTERED</text><text fill="#eeeeee" stroke="none" font-family="Arial" font-size="24px" font-style="normal" font-weight="normal" text-decoration="none" x="0" y="30">UNREGISTERED</text><text fill="#eeeeee" stroke="none" font-family="Arial" font-size="24px" font-style="normal" font-weight="normal" text-decoration="none" x="0" y="60">UNREGISTERED</text><text fill="#eeeeee" stroke="none" font-family="Arial" font-size="24px" font-style="normal" font-weight="normal" text-decoration="none" x="0" y="90">UNREGISTERED</text><text fill="#eeeeee" stroke="none" font-family="Arial" font-size="24px" font-style="normal" font-weight="normal" text-decoration="none" x="200" y="0">UNREGISTERED</text><text fill="#eeeeee" stroke="none" font-family="Arial" font-size="24px" font-style="normal" font-weight="normal" text-decoration="none" x="200" y="30">UNREGISTERED</text><text fill="#eeeeee" stroke="none" font-family="Arial" font-size="24px" font-style="normal" font-weight="normal" text-decoration="none" x="200" y="60">UNREGISTERED</text><text fill="#eeeeee" stroke="none" font-family="Arial" font-size="24px" font-style="normal" font-weight="normal" text-decoration="none" x="200" y="90">UNREGISTERED</text><text fill="#eeeeee" stroke="none" font-family="Arial" font-size="24px" font-style="normal" font-weight="normal" text-decoration="none" x="400" y="0">UNREGISTERED</text><text fill="#eeeeee" stroke="none" font-family="Arial" font-size="24px" font-style="normal" font-weight="normal" text-decoration="none" x="400" y="30">UNREGISTERED</text><text fill="#eeeeee" stroke="none" font-family="Arial" font-size="24px" font-style="normal" font-weight="normal" text-decoration="none" x="400" y="60">UNREGISTERED</text><text fill="#eeeeee" stroke="none" font-family="Arial" font-size="24px" font-style="normal" font-weight="normal" text-decoration="none" x="400" y="90">UNREGISTERED</text><g transform="translate(-110,-238) scale(1,1)"><rect fill="#C0C0C0" stroke="none" x="127" y="255" width="27.5966796875" height="15" opacity="0.2"/></g><g transform="translate(-110,-238) scale(1,1)"><rect fill="#C0C0C0" stroke="none" x="127" y="269" width="68.99169921875" height="58" opacity="0.2"/></g><g transform="translate(-110,-238) scale(1,1)"><rect fill="#ffffff" stroke="none" x="120" y="263" width="68.99169921875" height="57"/></g><g transform="translate(-110,-238) scale(1,1)"><path fill="none" stroke="#000000" d="M 120 263 L 188.99169921875 263 L 188.99169921875 320 L 120 320 L 120 263 Z Z" stroke-miterlimit="10"/></g><g transform="translate(-110,-238) scale(1,1)"><rect fill="#ffffff" stroke="none" x="120" y="248" width="27.5966796875" height="15"/></g><g transform="translate(-110,-238) scale(1,1)"><path fill="none" stroke="#000000" d="M 120 248 L 147.5966796875 248 L 147.5966796875 263 L 120 263 L 120 248 Z Z" stroke-miterlimit="10"/></g><g transform="translate(-110,-238) scale(1,1)"><rect fill="#ffffff" stroke="none" x="120" y="262" width="68.99169921875" height="58"/></g><g transform="translate(-110,-238) scale(1,1)"><path fill="none" stroke="#000000" d="M 120 262 L 188.99169921875 262 L 188.99169921875 320 L 120 320 L 120 262 Z Z" stroke-miterlimit="10"/></g><g transform="translate(-110,-238) scale(1,1)"><g><path fill="none" stroke="none"/><text fill="#000000" stroke="none" font-family="Arial" font-size="13px" font-style="normal" font-weight="bold" text-decoration="none" x="142.930419921875" y="282.5">App</text></g></g><g transform="translate(-110,-238) scale(1,1)"><rect fill="#C0C0C0" stroke="none" x="239" y="255" width="38.39999999999998" height="15" opacity="0.2"/></g><g transform="translate(-110,-238) scale(1,1)"><rect fill="#C0C0C0" stroke="none" x="239" y="269" width="96" height="74" opacity="0.2"/></g><g transform="translate(-110,-238) scale(1,1)"><rect fill="#ffffff" stroke="none" x="232" y="263" width="96" height="73"/></g><g transform="translate(-110,-238) scale(1,1)"><path fill="none" stroke="#000000" d="M 232 263 L 328 263 L 328 336 L 232 336 L 232 263 Z Z" stroke-miterlimit="10"/></g><g transform="translate(-110,-238) scale(1,1)"><rect fill="#ffffff" stroke="none" x="232" y="248" width="38.39999999999998" height="15"/></g><g transform="translate(-110,-238) scale(1,1)"><path fill="none" stroke="#000000" d="M 232 248 L 270.4 248 L 270.4 263 L 232 263 L 232 248 Z Z" stroke-miterlimit="10"/></g><g transform="translate(-110,-238) scale(1,1)"><rect fill="#ffffff" stroke="none" x="232" y="262" width="96" height="74"/></g><g transform="translate(-110,-238) scale(1,1)"><path fill="none" stroke="#000000" d="M 232 262 L 328 262 L 328 336 L 232 336 L 232 262 Z Z" stroke-miterlimit="10"/></g><g transform="translate(-110,-238) scale(1,1)"><g><path fill="none" stroke="none"/><text fill="#000000" stroke="none" font-family="Arial" font-size="13px" font-style="normal" font-weight="bold" text-decoration="none" x="261.94091796875" y="282.5">Metier</text></g></g><g transform="translate(-110,-238) scale(1,1)"><rect fill="#C0C0C0" stroke="none" x="351" y="255" width="27.5966796875" height="15" opacity="0.2"/></g><g transform="translate(-110,-238) scale(1,1)"><rect fill="#C0C0C0" stroke="none" x="351" y="269" width="68.99169921875" height="25" opacity="0.2"/></g><g transform="translate(-110,-238) scale(1,1)"><rect fill="#ffffff" stroke="none" x="344" y="263" width="68.99169921875" height="24"/></g><g transform="translate(-110,-238) scale(1,1)"><path fill="none" stroke="#000000" d="M 344 263 L 412.99169921875 263 L 412.99169921875 287 L 344 287 L 344 263 Z Z" stroke-miterlimit="10"/></g><g transform="translate(-110,-238) scale(1,1)"><rect fill="#ffffff" stroke="none" x="344" y="248" width="27.5966796875" height="15"/></g><g transform="translate(-110,-238) scale(1,1)"><path fill="none" stroke="#000000" d="M 344 248 L 371.5966796875 248 L 371.5966796875 263 L 344 263 L 344 248 Z Z" stroke-miterlimit="10"/></g><g transform="translate(-110,-238) scale(1,1)"><rect fill="#ffffff" stroke="none" x="344" y="262" width="68.99169921875" height="25"/></g><g transform="translate(-110,-238) scale(1,1)"><path fill="none" stroke="#000000" d="M 344 262 L 412.99169921875 262 L 412.99169921875 287 L 344 287 L 344 262 Z Z" stroke-miterlimit="10"/></g><g transform="translate(-110,-238) scale(1,1)"><g><path fill="none" stroke="none"/><text fill="#000000" stroke="none" font-family="Arial" font-size="13px" font-style="normal" font-weight="bold" text-decoration="none" x="366.574951171875" y="282.5">Test</text></g></g><g transform="translate(-110,-238) scale(1,1)"><rect fill="#C0C0C0" stroke="none" x="455" y="255" width="27.5966796875" height="15" opacity="0.2"/></g><g transform="translate(-110,-238) scale(1,1)"><rect fill="#C0C0C0" stroke="none" x="455" y="269" width="68.99169921875" height="25" opacity="0.2"/></g><g transform="translate(-110,-238) scale(1,1)"><rect fill="#ffffff" stroke="none" x="448" y="263" width="68.99169921875" height="24"/></g><g transform="translate(-110,-238) scale(1,1)"><path fill="none" stroke="#000000" d="M 448 263 L 516.99169921875 263 L 516.99169921875 287 L 448 287 L 448 263 Z Z" stroke-miterlimit="10"/></g><g transform="translate(-110,-238) scale(1,1)"><rect fill="#ffffff" stroke="none" x="448" y="248" width="27.5966796875" height="15"/></g><g transform="translate(-110,-238) scale(1,1)"><path fill="none" stroke="#000000" d="M 448 248 L 475.5966796875 248 L 475.5966796875 263 L 448 263 L 448 248 Z Z" stroke-miterlimit="10"/></g><g transform="translate(-110,-238) scale(1,1)"><rect fill="#ffffff" stroke="none" x="448" y="262" width="68.99169921875" height="25"/></g><g transform="translate(-110,-238) scale(1,1)"><path fill="none" stroke="#000000" d="M 448 262 L 516.99169921875 262 L 516.99169921875 287 L 448 287 L 448 262 Z Z" stroke-miterlimit="10"/></g><g transform="translate(-110,-238) scale(1,1)"><g><path fill="none" stroke="none"/><text fill="#000000" stroke="none" font-family="Arial" font-size="13px" font-style="normal" font-weight="bold" text-decoration="none" x="470.93994140625" y="282.5">GUI</text></g></g><g transform="translate(-110,-238) scale(1,1)"><rect fill="#ffffff" stroke="none" x="232" y="304" width="99" height="22"/></g><g transform="translate(-110,-238) scale(1,1)"><path fill="none" stroke="#000000" d="M 232 304 L 331 304 L 331 326 L 232 326 L 232 304 Z Z" stroke-miterlimit="10"/></g><g transform="translate(-110,-238) scale(1,1)"><path fill="none" stroke="#000000" d="M 264.39453125 304 L 264.39453125 326" stroke-miterlimit="10"/></g><g transform="translate(-110,-238) scale(1,1)"><g><path fill="none" stroke="none"/><text fill="#000000" stroke="none" font-family="Arial" font-size="13px" font-style="normal" font-weight="normal" text-decoration="none" x="268.89453125" y="321.5">Metier</text></g></g><g transform="translate(-110,-238) scale(1,1)"><g><path fill="none" stroke="none"/><text fill="#000000" stroke="none" font-family="Arial" font-size="13px" font-style="normal" font-weight="bold" text-decoration="none" x="238.444091796875" y="321.5">link</text></g></g></g></svg>